<?xml version="1.0" encoding="iso-8859-1"?>
<!-- Generator: Adobe Illustrator 19.0.0, SVG Export Plug-In . SVG Version: 6.00 Build 0)  -->
<svg version="1.1" id="Layer_1" xmlns="http://www.w3.org/2000/svg" xmlns:xlink="http://www.w3.org/1999/xlink" x="0px" y="0px"
	 viewBox="0 0 504.123 504.123" style="enable-background:new 0 0 504.123 504.123;" xml:space="preserve">
<polygon style="fill:#DD1F83;" points="238.034,504.123 129.986,396.083 129.986,243.302 238.034,135.278 390.815,135.278 
	498.862,243.302 498.862,396.083 390.815,504.123 "/>
<polyline style="fill:#CC1B70;" points="390.815,135.278 498.862,243.302 498.862,396.083 390.815,504.123 238.034,504.123 
	129.986,396.083 "/>
<polyline style="fill:#BC005E;" points="390.815,135.278 498.862,243.302 498.862,396.083 390.815,504.123 238.034,504.123 "/>
<polyline style="fill:#A00058;" points="498.862,243.302 498.862,396.083 390.815,504.123 238.034,504.123 "/>
<polygon style="fill:#8E4FB7;" points="169.843,320.071 109.813,260.041 109.813,175.128 169.843,115.105 254.756,115.105 
	314.802,175.128 314.802,260.041 254.756,320.071 "/>
<polyline style="fill:#7D3CA0;" points="254.756,115.105 314.802,175.128 314.802,260.041 254.756,320.071 169.843,320.071 
	109.813,260.041 "/>
<polyline style="fill:#6B2C93;" points="254.756,115.105 314.802,175.128 314.802,260.041 254.756,320.071 169.843,320.071 "/>
<polyline style="fill:#471A72;" points="314.802,175.128 314.802,260.041 254.756,320.071 169.843,320.071 "/>
<polygon style="fill:#7D3CA0;" points="274.512,84.094 249.865,59.463 249.865,24.631 274.512,0 309.328,0 333.967,24.631 
	333.967,59.463 309.328,84.094 "/>
<polyline style="fill:#6B2C93;" points="309.328,0 333.967,24.631 333.967,59.463 309.328,84.094 274.512,84.094 249.865,59.463 "/>
<polyline style="fill:#5A2484;" points="333.967,24.631 333.967,59.463 309.328,84.094 274.512,84.094 249.865,59.463 "/>
<polygon style="fill:#DD1F83;" points="56.801,225.146 50.492,218.852 50.492,209.952 56.801,203.666 65.679,203.666 
	71.988,209.952 71.988,218.852 65.679,225.146 "/>
<g>
	<polygon style="fill:#8E4FB7;" points="51.232,301.836 38.306,288.918 38.306,270.643 51.232,257.725 69.491,257.725 
		82.433,270.643 82.433,288.918 69.491,301.836 	"/>
	<polygon style="fill:#8E4FB7;" points="300.647,438.697 275.599,413.672 275.599,378.258 300.647,353.233 336.031,353.233 
		361.095,378.258 361.095,413.672 336.031,438.697 	"/>
</g>
<polygon style="fill:#6B2C93;" points="275.599,413.672 300.647,438.697 336.031,438.697 361.095,413.672 361.095,378.258 
	336.031,353.233 300.647,353.233 300.45,353.445 275.599,413.428 "/>
<polygon style="fill:#7D3CA0;" points="303.444,438.697 336.031,438.697 361.095,413.672 361.095,381.054 "/>
<polygon style="fill:#8E4FB7;" points="358.173,228.974 342.064,212.882 342.064,190.125 358.173,174.033 380.905,174.033 
	397.029,190.125 397.029,212.882 380.905,228.974 "/>
<polygon style="fill:#7D3CA0;" points="374.753,174.033 353.801,224.618 358.173,228.974 380.905,228.974 397.029,212.882 
	397.029,190.125 380.905,174.033 "/>
<path style="fill:#DD1F83;" d="M124.078,126.685c-2.016,0-4.049-0.772-5.569-2.308L31.863,37.73c-3.096-3.08-3.096-8.058,0-11.138
	c3.08-3.08,8.058-3.08,11.138,0l86.646,86.646c3.08,3.08,3.08,8.058,0,11.138C128.111,125.913,126.095,126.685,124.078,126.685z"/>
<g>
	<path style="fill:#BC005E;" d="M158.217,88.615c-2.016,0-4.049-0.772-5.569-2.308l-50.554-50.546c-3.08-3.08-3.08-8.058,0-11.138
		c3.08-3.08,8.058-3.08,11.138,0l50.554,50.546c3.08,3.08,3.08,8.058,0,11.138C162.25,87.843,160.233,88.615,158.217,88.615z"/>
	<path style="fill:#BC005E;" d="M160.186,502.808c-2.016,0-4.049-0.772-5.569-2.308L41.709,387.6c-3.08-3.08-3.08-8.058,0-11.138
		c3.08-3.08,8.058-3.08,11.138,0l112.908,112.9c3.08,3.08,3.08,8.058,0,11.138C164.219,502.036,162.203,502.808,160.186,502.808z"/>
</g>
<g>
	<path style="fill:#DD1F83;" d="M74.202,176.577c-1.016,0-2.016-0.386-2.788-1.15l-24.292-24.285c-1.552-1.536-1.552-4.033,0-5.569
		c1.536-1.536,4.033-1.536,5.553,0l24.292,24.285c1.552,1.536,1.552,4.033,0,5.569C76.218,176.191,75.202,176.577,74.202,176.577z"
		/>
	<path style="fill:#DD1F83;" d="M33.494,135.877c-1,0-2.016-0.386-2.788-1.15L6.413,110.434c-1.536-1.536-1.536-4.033,0-5.569
		c1.536-1.536,4.033-1.536,5.569,0l24.292,24.285c1.536,1.536,1.536,4.033,0,5.569C35.51,135.491,34.51,135.877,33.494,135.877z"/>
	<path style="fill:#DD1F83;" d="M440.479,112.246c-1.016,0-2.017-0.386-2.788-1.15l-24.292-24.285c-1.552-1.536-1.552-4.033,0-5.569
		c1.536-1.536,4.033-1.536,5.553,0l24.292,24.285c1.552,1.536,1.552,4.033,0,5.569C442.495,111.86,441.479,112.246,440.479,112.246z
		"/>
	<path style="fill:#DD1F83;" d="M399.771,71.546c-1,0-2.016-0.386-2.788-1.15L372.69,46.112c-1.536-1.536-1.536-4.033,0-5.569
		c1.536-1.536,4.033-1.536,5.569,0l24.292,24.285c1.536,1.536,1.536,4.033,0,5.569C401.787,71.168,400.787,71.546,399.771,71.546z"
		/>
</g>
<g>
</g>
<g>
</g>
<g>
</g>
<g>
</g>
<g>
</g>
<g>
</g>
<g>
</g>
<g>
</g>
<g>
</g>
<g>
</g>
<g>
</g>
<g>
</g>
<g>
</g>
<g>
</g>
<g>
</g>
</svg>
